<?xml version="1.0" encoding="UTF-8"?>
<svg id="Layer_1" data-name="Layer 1" xmlns="http://www.w3.org/2000/svg" viewBox="0 0 565.22 444.44">
  <defs>
    <style>
      .cls-1 {
        fill: #73b8d6;
      }

      .cls-1, .cls-2, .cls-3, .cls-4, .cls-5, .cls-6 {
        stroke: #231f20;
        stroke-miterlimit: 10;
        stroke-width: 5px;
      }

      .cls-2 {
        fill: #0090bd;
      }

      .cls-3 {
        fill: #006789;
      }

      .cls-4 {
        fill: #001722;
      }

      .cls-5 {
        fill: #e31f26;
      }

      .cls-6 {
        fill: #c2c4c6;
      }

      .cls-7 {
        fill: #231f20;
      }
    </style>
  </defs>
  <path class="cls-3" d="m281.76,422.37l18.2-162.32s-48.73,41.53-66.75,97.98c0,0-12.68,45.65,18.27,51.96l30.95,6.31"/>
  <path class="cls-2" d="m134.9,126.96l427.8,6.07s1.52,84.95-22.76,106.19l-138.05-25.79c27.31,66.75,74.33,86.47,74.33,86.47,0,0-98.86,110.08-244.74,30.02-145.88-80.05-96.59-202.96-96.59-202.96Z"/>
  <path class="cls-2" d="m134.9,126.96s81.92-30.34,86.47-86.47c4.55-56.13-56.13-50.06-71.3,18.2l-15.17,68.27Z"/>
  <path class="cls-1" d="m335.15,279.36c9.66,10.87-18.2,162.32-18.2,162.32,0,0-66.56-7.89-48.54-64.34,18.01-56.45,57.09-108.85,66.75-97.98Z"/>
  <circle class="cls-6" cx="491.78" cy="166.78" r="15.55"/>
  <path class="cls-4" d="m409.22,120.75h135.01c4.33,0,7.84,3.51,7.84,7.84v1c0,4.33-3.51,7.84-7.84,7.84h-136.01c-4.33,0-7.84-3.51-7.84-7.84h0c0-4.88,3.96-8.84,8.84-8.84Z" transform="translate(-17.18 127.81) rotate(-15.02)"/>
  <path class="cls-4" d="m432.61,20.57h49.22c8.83,0,16,7.17,16,16v65.22h-81.22V36.57c0-8.83,7.17-16,16-16Z" transform="translate(-.24 120.57) rotate(-15.02)"/>
  <rect class="cls-5" x="430.41" y="98.57" width="81.22" height="22.22" transform="translate(-12.33 125.8) rotate(-15.02)"/>
  <path class="cls-2" d="m136.31,125.03s-83.38,25.31-120.98-16.61,14.24-73.73,67.61-28.56l53.37,45.17Z"/>
  <circle class="cls-7" cx="497.12" cy="166.78" r="6.99"/>
</svg>